<?xml version="1.0" encoding="utf-8"?>
<!-- Generator: Adobe Illustrator 17.0.0, SVG Export Plug-In . SVG Version: 6.00 Build 0)  -->
<!DOCTYPE svg PUBLIC "-//W3C//DTD SVG 1.1//EN" "http://www.w3.org/Graphics/SVG/1.1/DTD/svg11.dtd">
<svg version="1.1" xmlns="http://www.w3.org/2000/svg" xmlns:xlink="http://www.w3.org/1999/xlink" x="0px" y="0px"
	 width="24px" height="24px" viewBox="0 0 24 24" enable-background="new 0 0 24 24" xml:space="preserve">
<path fill="none" d="M0,0h24v24H0V0z"/>
<path fill="currentColor" d="M18.935,3.876l-6.931,6.931L5.073,3.876c-0.329-0.329-0.863-0.329-1.193,0c-0.329,0.329-0.329,0.863,0,1.193L10.811,12
	L3.88,18.931c-0.329,0.329-0.329,0.863,0,1.193s0.863,0.329,1.193,0l6.931-6.931l6.931,6.931c0.329,0.329,0.863,0.329,1.193,0
	c0.329-0.329,0.329-0.863,0-1.193L13.196,12l6.931-6.931c0.329-0.329,0.329-0.863,0-1.193S19.264,3.547,18.935,3.876z"/>
</svg>
