<?xml version="1.0" encoding="utf-8"?>
<!-- Generator: Adobe Illustrator 17.0.0, SVG Export Plug-In . SVG Version: 6.00 Build 0)  -->
<!DOCTYPE svg PUBLIC "-//W3C//DTD SVG 1.1//EN" "http://www.w3.org/Graphics/SVG/1.1/DTD/svg11.dtd">
<svg version="1.1" xmlns="http://www.w3.org/2000/svg" xmlns:xlink="http://www.w3.org/1999/xlink" x="0px" y="0px"
	 width="24px" height="24px" viewBox="0 0 24 24" enable-background="new 0 0 24 24" xml:space="preserve">
<path fill="none" d="M0,0h24v24H0V0z"/>
<path fill="currentColor" d="M22.629,1.372c-0.655-0.655-1.526-1.015-2.453-1.015c-0.927,0-1.798,0.36-2.453,1.015L2.858,16.237
	c-0.061,0.061-0.106,0.133-0.135,0.213l-2.332,6.412c-0.077,0.213-0.024,0.451,0.135,0.611c0.111,0.111,0.26,0.17,0.413,0.17
	c0.066,0,0.134-0.012,0.199-0.035l6.412-2.332c0.08-0.029,0.153-0.076,0.213-0.135L22.629,6.277
	c0.655-0.655,1.015-1.526,1.015-2.453s-0.36-1.798-1.015-2.453V1.372z M7.03,20.226l-5.117,1.861l1.861-5.117L16.678,4.066
	l3.256,3.256C19.934,7.322,7.03,20.226,7.03,20.226z M21.803,5.452l-1.045,1.045l-3.256-3.256l1.045-1.045
	c0.435-0.435,1.013-0.674,1.628-0.674c0.614,0,1.193,0.239,1.628,0.674s0.674,1.013,0.674,1.628s-0.239,1.193-0.674,1.628
	L21.803,5.452z"/>
</svg>
