<?xml version="1.0" encoding="utf-8"?>
<!-- Generator: Adobe Illustrator 23.0.2, SVG Export Plug-In . SVG Version: 6.00 Build 0)  -->
<svg version="1.1" xmlns="http://www.w3.org/2000/svg" xmlns:xlink="http://www.w3.org/1999/xlink" x="0px" y="0px"
	 viewBox="0 0 24 24" style="enable-background:new 0 0 24 24;" xml:space="preserve">
<path fill="none" d="M0,0h24v24H0V0z"/>
<g>
	<g>
		<path fill="currentColor" d="M12.3,7v5.9l5,3l0.8-1.4L14.1,12V7H12.3z M13.5,1.4c-2.7,0-5.3,1.1-7.2,3c-1.9,1.9-3,4.5-3,7.3V12H0.1l3.9,3.9L8,12H4.9
			v-0.3c0-4.7,3.8-8.5,8.5-8.5S22,7,22,11.7s-3.8,8.5-8.5,8.5c-2.2,0-4.2-0.8-5.8-2.3l-1.2,1.2c1.9,1.8,4.4,2.8,7,2.8
			c5.7,0,10.3-4.6,10.3-10.3S19.1,1.4,13.5,1.4z"/>
	</g>
</g>
</svg>
