<?xml version="1.0" encoding="utf-8"?>
<!-- Generator: Adobe Illustrator 17.0.0, SVG Export Plug-In . SVG Version: 6.00 Build 0)  -->
<!DOCTYPE svg PUBLIC "-//W3C//DTD SVG 1.1//EN" "http://www.w3.org/Graphics/SVG/1.1/DTD/svg11.dtd">
<svg version="1.1" xmlns="http://www.w3.org/2000/svg" xmlns:xlink="http://www.w3.org/1999/xlink" x="0px" y="0px"
	 width="24px" height="24px" viewBox="0 0 24 24" enable-background="new 0 0 24 24" xml:space="preserve">
<path fill="none" d="M0,0h24v24H0V0z"/>
<path fill="currentColor" d="M11.161,1.355v9.802H1.358c-0.466,0-0.843,0.378-0.843,0.843c0,0.466,0.378,0.843,0.843,0.843h9.802v9.802
	c0,0.466,0.378,0.843,0.843,0.843s0.843-0.378,0.843-0.843v-9.802h9.802c0.466,0,0.843-0.378,0.843-0.843
	c0-0.466-0.378-0.843-0.843-0.843h-9.802V1.355c0-0.466-0.378-0.843-0.843-0.843S11.161,0.889,11.161,1.355z"/>
</svg>
