<?xml version="1.0" encoding="utf-8"?>
<!-- Generator: Adobe Illustrator 17.0.0, SVG Export Plug-In . SVG Version: 6.00 Build 0)  -->
<!DOCTYPE svg PUBLIC "-//W3C//DTD SVG 1.1//EN" "http://www.w3.org/Graphics/SVG/1.1/DTD/svg11.dtd">
<svg version="1.1" xmlns="http://www.w3.org/2000/svg" xmlns:xlink="http://www.w3.org/1999/xlink" x="0px" y="0px"
	 width="24px" height="24px" viewBox="0 0 24 24" enable-background="new 0 0 24 24" xml:space="preserve">
<path fill="none" d="M0,0h24v24H0V0z"/>
<g>
	<g>
		<path fill="currentColor" d="M6.12,5.471c3.216-2.909,8.029-2.953,11.289-0.298l-2.584,0.098c-0.334,0.013-0.592,0.289-0.578,0.623
			c0.013,0.325,0.28,0.578,0.6,0.578c0.009,0,0.013,0,0.022,0l3.968-0.147c0.325-0.013,0.578-0.276,0.578-0.6V5.68
			c0-0.009,0-0.013,0-0.022V5.653l0,0L19.268,1.73c-0.013-0.334-0.294-0.592-0.623-0.578c-0.334,0.013-0.592,0.289-0.578,0.623
			l0.093,2.46c-1.615-1.321-3.603-2.086-5.729-2.193c-2.633-0.133-5.164,0.769-7.117,2.54c-2.687,2.433-3.825,6.134-2.971,9.656
			c0.067,0.276,0.311,0.458,0.583,0.458c0.049,0,0.093-0.004,0.142-0.018c0.32-0.08,0.52-0.405,0.44-0.725
			C2.762,10.857,3.758,7.606,6.12,5.471z"/>
		<path fill="currentColor" d="M21.701,9.848c-0.08-0.32-0.405-0.52-0.725-0.44s-0.52,0.405-0.44,0.725c0.752,3.096-0.249,6.347-2.611,8.482
			c-1.659,1.499-3.741,2.237-5.813,2.237c-1.979,0-3.954-0.672-5.547-1.997l2.615-0.236c0.329-0.031,0.574-0.32,0.543-0.654
			c-0.031-0.334-0.32-0.574-0.654-0.543l-3.954,0.356c-0.329,0.031-0.574,0.32-0.543,0.654l0.356,3.954
			c0.027,0.311,0.289,0.547,0.596,0.547c0.018,0,0.036,0,0.053-0.004c0.329-0.031,0.574-0.32,0.543-0.654l-0.214-2.406
			c1.615,1.308,3.594,2.068,5.707,2.175c0.169,0.009,0.338,0.013,0.503,0.013c2.451,0,4.782-0.898,6.614-2.553
			C21.417,17.071,22.555,13.375,21.701,9.848z"/>
	</g>
</g>
</svg>
