<?xml version="1.0" encoding="utf-8"?>
<!-- Generator: Adobe Illustrator 17.0.0, SVG Export Plug-In . SVG Version: 6.00 Build 0)  -->
<!DOCTYPE svg PUBLIC "-//W3C//DTD SVG 1.1//EN" "http://www.w3.org/Graphics/SVG/1.1/DTD/svg11.dtd">
<svg version="1.1" xmlns="http://www.w3.org/2000/svg" xmlns:xlink="http://www.w3.org/1999/xlink" x="0px" y="0px"
	 width="24px" height="24px" viewBox="0 0 24 24" enable-background="new 0 0 24 24" xml:space="preserve">
<path fill="none" d="M0,0h24v24H0V0z"/>
<path fill="currentColor" d="M21.899,3.879L20.09,2.07c-0.633-0.635-1.511-0.998-2.407-0.998H3.601c-1.378,0-2.497,1.12-2.497,2.497v16.799
	c0,1.378,1.12,2.497,2.497,2.497h16.799c1.378,0,2.497-1.12,2.497-2.497V6.287C22.897,5.378,22.542,4.523,21.899,3.879z
	 M6.098,2.434h8.172v3.632H6.098V2.434z M21.535,20.368c0,0.626-0.509,1.135-1.135,1.135H3.601c-0.626,0-1.135-0.509-1.135-1.135
	V3.569c0-0.626,0.509-1.135,1.135-1.135h1.135v4.313c0,0.376,0.305,0.681,0.681,0.681h9.535c0.376,0,0.681-0.305,0.681-0.681V2.434
	h2.05c0.539,0,1.064,0.218,1.445,0.599l1.809,1.809c0.386,0.386,0.598,0.899,0.598,1.445V20.368z M12,10.607
	c-2.253,0-4.086,1.833-4.086,4.086S9.747,18.779,12,18.779s4.086-1.833,4.086-4.086S14.253,10.607,12,10.607z M12,17.417
	c-1.502,0-2.724-1.222-2.724-2.724s1.222-2.724,2.724-2.724s2.724,1.222,2.724,2.724S13.502,17.417,12,17.417z"/>
</svg>
