<?xml version="1.0" encoding="utf-8"?>
<!-- Generator: Adobe Illustrator 17.0.0, SVG Export Plug-In . SVG Version: 6.00 Build 0)  -->
<!DOCTYPE svg PUBLIC "-//W3C//DTD SVG 1.1//EN" "http://www.w3.org/Graphics/SVG/1.1/DTD/svg11.dtd">
<svg version="1.1" xmlns="http://www.w3.org/2000/svg" xmlns:xlink="http://www.w3.org/1999/xlink" x="0px" y="0px"
	 width="24px" height="24px" viewBox="0 0 24 24" enable-background="new 0 0 24 24" xml:space="preserve">
<path fill="none" d="M0,0h24v24H0V0z"/>
<path fill="currentColor" d="M18.99,2.685h-4.075V2.102c0-0.963-0.784-1.747-1.747-1.747h-2.329c-0.963,0-1.747,0.784-1.747,1.747v0.582H5.017
	c-0.963,0-1.747,0.784-1.747,1.747v1.164c0,0.759,0.487,1.407,1.164,1.646v14.655c0,0.963,0.784,1.747,1.747,1.747h11.644
	c0.963,0,1.747-0.784,1.747-1.747V7.242c0.678-0.24,1.164-0.887,1.164-1.646V4.431C20.737,3.468,19.953,2.685,18.99,2.685z
	 M10.257,2.102c0-0.321,0.261-0.582,0.582-0.582h2.329c0.321,0,0.582,0.261,0.582,0.582v0.582h-3.493V2.102z M17.826,22.48H6.182
	c-0.321,0-0.582-0.261-0.582-0.582V7.342h12.809v14.555C18.408,22.219,18.147,22.48,17.826,22.48z M19.573,5.596
	c0,0.321-0.261,0.582-0.582,0.582H5.017c-0.321,0-0.582-0.261-0.582-0.582V4.431c0-0.321,0.261-0.582,0.582-0.582H18.99
	c0.321,0,0.582,0.261,0.582,0.582V5.596z"/>
</svg>
