<?xml version="1.0" encoding="utf-8"?>
<!-- Generator: Adobe Illustrator 23.0.2, SVG Export Plug-In . SVG Version: 6.00 Build 0)  -->
<svg version="1.1" xmlns="http://www.w3.org/2000/svg" xmlns:xlink="http://www.w3.org/1999/xlink" x="0px" y="0px"
	 viewBox="0 0 24 24" width="24px" height="24px" style="enable-background:new 0 0 24 24;" xml:space="preserve">
<path fill="currentColor" d="M23.7,11.5c-0.1-0.1-1.4-1.5-3.5-3c-1.2-0.9-2.5-1.6-3.7-2.1c-1.5-0.6-3-1-4.5-1c-1.4,0-2.9,0.3-4.5,1
	C6.5,6.9,5.2,7.6,4,8.5c-2.1,1.5-3.4,3-3.5,3c-0.2,0.3-0.2,0.7,0,0.9c0.1,0.1,1.4,1.5,3.5,3c1.2,0.9,2.5,1.6,3.7,2.1
	c1.5,0.6,3,1,4.5,1s2.9-0.3,4.5-1c1.2-0.5,2.4-1.2,3.7-2.1c2.1-1.5,3.4-3,3.5-3C24,12.2,24,11.8,23.7,11.5z M9.2,7.4
	c1-0.3,2-0.5,2.9-0.5s1.9,0.1,3,0.5c1,0.9,1.6,2.1,1.6,3.5c0,2.5-2,4.5-4.5,4.5s-4.5-2-4.5-4.5C7.6,9.5,8.2,8.2,9.2,7.4z M6.7,8.5
	C6.4,9.2,6.2,10,6.2,10.8c0,3.3,2.7,5.9,5.9,5.9S18,14,18,10.8c0-0.8-0.2-1.6-0.5-2.4c0.6,0.3,1.2,0.7,1.8,1.2
	c1.3,0.9,2.3,1.8,2.8,2.4c-0.5,0.5-1.5,1.5-2.8,2.4c-1.8,1.3-4.5,2.8-7.3,2.8s-5.5-1.5-7.3-2.8c-1.2-1-2.2-1.9-2.7-2.4
	c0.5-0.5,1.5-1.4,2.8-2.4C5.4,9.2,6.1,8.8,6.7,8.5z"/>
</svg>
